<mxfile host="app.diagrams.net" agent="Mozilla/5.0 (Windows NT 10.0; Win64; x64) AppleWebKit/537.36 (KHTML, like Gecko) Chrome/130.0.0.0 Safari/537.36 Edg/130.0.0.0" version="24.8.3">
  <diagram name="Page-1" id="HOXcH-lexmh_y3vBjGaD">
    <mxGraphModel dx="1301" dy="664" grid="1" gridSize="10" guides="1" tooltips="1" connect="1" arrows="1" fold="1" page="1" pageScale="1" pageWidth="850" pageHeight="1100" math="0" shadow="0">
      <root>
        <mxCell id="0" />
        <mxCell id="1" parent="0" />
        <mxCell id="WhckQn_8YqK9aiEQFW9J-4" style="edgeStyle=orthogonalEdgeStyle;rounded=0;orthogonalLoop=1;jettySize=auto;html=1;entryX=0.5;entryY=1;entryDx=0;entryDy=0;" edge="1" parent="1" source="HErnAzUT6-5LEjR79Lvf-1" target="WhckQn_8YqK9aiEQFW9J-3">
          <mxGeometry relative="1" as="geometry" />
        </mxCell>
        <mxCell id="HErnAzUT6-5LEjR79Lvf-1" value="" style="whiteSpace=wrap;html=1;aspect=fixed;dashed=1;" parent="1" vertex="1">
          <mxGeometry x="150" y="570" width="420" height="420" as="geometry" />
        </mxCell>
        <mxCell id="HErnAzUT6-5LEjR79Lvf-10" value="Finacle:172.18.14.143" style="shape=datastore;whiteSpace=wrap;html=1;fontStyle=1" parent="1" vertex="1">
          <mxGeometry x="630" y="793" width="140" height="50" as="geometry" />
        </mxCell>
        <mxCell id="WhckQn_8YqK9aiEQFW9J-17" style="edgeStyle=orthogonalEdgeStyle;rounded=0;orthogonalLoop=1;jettySize=auto;html=1;" edge="1" parent="1" target="WhckQn_8YqK9aiEQFW9J-29">
          <mxGeometry relative="1" as="geometry">
            <mxPoint x="60" y="697" as="sourcePoint" />
            <mxPoint x="114" y="660" as="targetPoint" />
          </mxGeometry>
        </mxCell>
        <mxCell id="9p9XvHRa5SeiTtAYQGbj-7" value="Client App" style="swimlane;fontStyle=0;childLayout=stackLayout;horizontal=1;startSize=30;horizontalStack=0;resizeParent=1;resizeParentMax=0;resizeLast=0;collapsible=1;marginBottom=0;whiteSpace=wrap;html=1;" parent="1" vertex="1">
          <mxGeometry y="630" width="60" height="190" as="geometry" />
        </mxCell>
        <mxCell id="9p9XvHRa5SeiTtAYQGbj-6" value="" style="verticalLabelPosition=bottom;html=1;verticalAlign=top;align=center;strokeColor=none;fillColor=#00BEF2;shape=mxgraph.azure.user;" parent="9p9XvHRa5SeiTtAYQGbj-7" vertex="1">
          <mxGeometry y="30" width="60" height="50" as="geometry" />
        </mxCell>
        <mxCell id="9p9XvHRa5SeiTtAYQGbj-9" value="Web" style="text;strokeColor=none;fillColor=none;align=left;verticalAlign=middle;spacingLeft=4;spacingRight=4;overflow=hidden;points=[[0,0.5],[1,0.5]];portConstraint=eastwest;rotatable=0;whiteSpace=wrap;html=1;" parent="9p9XvHRa5SeiTtAYQGbj-7" vertex="1">
          <mxGeometry y="80" width="60" height="30" as="geometry" />
        </mxCell>
        <mxCell id="9p9XvHRa5SeiTtAYQGbj-11" value="" style="verticalLabelPosition=bottom;html=1;verticalAlign=top;align=center;strokeColor=none;fillColor=#00BEF2;shape=mxgraph.azure.user;" parent="9p9XvHRa5SeiTtAYQGbj-7" vertex="1">
          <mxGeometry y="110" width="60" height="50" as="geometry" />
        </mxCell>
        <mxCell id="9p9XvHRa5SeiTtAYQGbj-10" value="App" style="text;strokeColor=none;fillColor=none;align=left;verticalAlign=middle;spacingLeft=4;spacingRight=4;overflow=hidden;points=[[0,0.5],[1,0.5]];portConstraint=eastwest;rotatable=0;whiteSpace=wrap;html=1;" parent="9p9XvHRa5SeiTtAYQGbj-7" vertex="1">
          <mxGeometry y="160" width="60" height="30" as="geometry" />
        </mxCell>
        <mxCell id="9p9XvHRa5SeiTtAYQGbj-12" value="&lt;b&gt;Core Api&lt;/b&gt;" style="swimlane;fontStyle=0;childLayout=stackLayout;horizontal=1;startSize=30;horizontalStack=0;resizeParent=1;resizeParentMax=0;resizeLast=0;collapsible=1;marginBottom=0;whiteSpace=wrap;html=1;" parent="1" vertex="1">
          <mxGeometry x="420" y="652" width="140" height="140" as="geometry" />
        </mxCell>
        <mxCell id="9p9XvHRa5SeiTtAYQGbj-13" value="Name Enquiry" style="text;strokeColor=none;fillColor=none;align=left;verticalAlign=middle;spacingLeft=4;spacingRight=4;overflow=hidden;points=[[0,0.5],[1,0.5]];portConstraint=eastwest;rotatable=0;whiteSpace=wrap;html=1;" parent="9p9XvHRa5SeiTtAYQGbj-12" vertex="1">
          <mxGeometry y="30" width="140" height="30" as="geometry" />
        </mxCell>
        <mxCell id="9p9XvHRa5SeiTtAYQGbj-14" value="Getaccount Detail" style="text;strokeColor=none;fillColor=none;align=left;verticalAlign=middle;spacingLeft=4;spacingRight=4;overflow=hidden;points=[[0,0.5],[1,0.5]];portConstraint=eastwest;rotatable=0;whiteSpace=wrap;html=1;" parent="9p9XvHRa5SeiTtAYQGbj-12" vertex="1">
          <mxGeometry y="60" width="140" height="30" as="geometry" />
        </mxCell>
        <mxCell id="9p9XvHRa5SeiTtAYQGbj-15" value="Posting" style="text;strokeColor=none;fillColor=none;align=left;verticalAlign=middle;spacingLeft=4;spacingRight=4;overflow=hidden;points=[[0,0.5],[1,0.5]];portConstraint=eastwest;rotatable=0;whiteSpace=wrap;html=1;" parent="9p9XvHRa5SeiTtAYQGbj-12" vertex="1">
          <mxGeometry y="90" width="140" height="50" as="geometry" />
        </mxCell>
        <mxCell id="9p9XvHRa5SeiTtAYQGbj-16" value="Auth service" style="swimlane;fontStyle=0;childLayout=stackLayout;horizontal=1;startSize=26;fillColor=none;horizontalStack=0;resizeParent=1;resizeParentMax=0;resizeLast=0;collapsible=1;marginBottom=0;html=1;" parent="1" vertex="1">
          <mxGeometry x="154" y="820" width="70" height="56" as="geometry" />
        </mxCell>
        <mxCell id="HErnAzUT6-5LEjR79Lvf-16" value="" style="sketch=0;outlineConnect=0;fontColor=#232F3E;gradientColor=none;fillColor=#232F3D;strokeColor=none;dashed=0;verticalLabelPosition=bottom;verticalAlign=top;align=center;html=1;fontSize=12;fontStyle=0;aspect=fixed;pointerEvents=1;shape=mxgraph.aws4.authenticated_user;" parent="9p9XvHRa5SeiTtAYQGbj-16" vertex="1">
          <mxGeometry y="26" width="70" height="30" as="geometry" />
        </mxCell>
        <mxCell id="9p9XvHRa5SeiTtAYQGbj-23" value="&lt;b&gt;Transfer Service&lt;/b&gt;" style="swimlane;fontStyle=0;childLayout=stackLayout;horizontal=1;startSize=30;horizontalStack=0;resizeParent=1;resizeParentMax=0;resizeLast=0;collapsible=1;marginBottom=0;whiteSpace=wrap;html=1;" parent="1" vertex="1">
          <mxGeometry x="240" y="650" width="140" height="150" as="geometry" />
        </mxCell>
        <mxCell id="9p9XvHRa5SeiTtAYQGbj-24" value="InterBank" style="text;strokeColor=none;fillColor=none;align=left;verticalAlign=middle;spacingLeft=4;spacingRight=4;overflow=hidden;points=[[0,0.5],[1,0.5]];portConstraint=eastwest;rotatable=0;whiteSpace=wrap;html=1;" parent="9p9XvHRa5SeiTtAYQGbj-23" vertex="1">
          <mxGeometry y="30" width="140" height="30" as="geometry" />
        </mxCell>
        <mxCell id="9p9XvHRa5SeiTtAYQGbj-25" value="Intra Bank" style="text;strokeColor=none;fillColor=none;align=left;verticalAlign=middle;spacingLeft=4;spacingRight=4;overflow=hidden;points=[[0,0.5],[1,0.5]];portConstraint=eastwest;rotatable=0;whiteSpace=wrap;html=1;" parent="9p9XvHRa5SeiTtAYQGbj-23" vertex="1">
          <mxGeometry y="60" width="140" height="30" as="geometry" />
        </mxCell>
        <mxCell id="9p9XvHRa5SeiTtAYQGbj-27" value="Own account" style="text;strokeColor=none;fillColor=none;align=left;verticalAlign=middle;spacingLeft=4;spacingRight=4;overflow=hidden;points=[[0,0.5],[1,0.5]];portConstraint=eastwest;rotatable=0;whiteSpace=wrap;html=1;" parent="9p9XvHRa5SeiTtAYQGbj-23" vertex="1">
          <mxGeometry y="90" width="140" height="30" as="geometry" />
        </mxCell>
        <mxCell id="9p9XvHRa5SeiTtAYQGbj-26" value="Multipe IntraBank" style="text;strokeColor=none;fillColor=none;align=left;verticalAlign=middle;spacingLeft=4;spacingRight=4;overflow=hidden;points=[[0,0.5],[1,0.5]];portConstraint=eastwest;rotatable=0;whiteSpace=wrap;html=1;" parent="9p9XvHRa5SeiTtAYQGbj-23" vertex="1">
          <mxGeometry y="120" width="140" height="30" as="geometry" />
        </mxCell>
        <mxCell id="9p9XvHRa5SeiTtAYQGbj-29" value="" style="edgeStyle=orthogonalEdgeStyle;rounded=0;orthogonalLoop=1;jettySize=auto;html=1;" parent="1" source="9p9XvHRa5SeiTtAYQGbj-25" target="9p9XvHRa5SeiTtAYQGbj-15" edge="1">
          <mxGeometry relative="1" as="geometry" />
        </mxCell>
        <mxCell id="WhckQn_8YqK9aiEQFW9J-1" value="&lt;h1 style=&quot;margin-top: 0px;&quot;&gt;172.18.14.187&lt;/h1&gt;" style="text;html=1;whiteSpace=wrap;overflow=hidden;rounded=0;" vertex="1" parent="1">
          <mxGeometry x="260" y="580" width="180" height="40" as="geometry" />
        </mxCell>
        <mxCell id="WhckQn_8YqK9aiEQFW9J-2" value="&lt;b&gt;NIBSS&lt;/b&gt;" style="outlineConnect=0;dashed=0;verticalLabelPosition=bottom;verticalAlign=top;align=center;html=1;shape=mxgraph.aws3.cloudwatch;fillColor=#759C3E;gradientColor=none;" vertex="1" parent="1">
          <mxGeometry x="448.75" y="410" width="82.5" height="93" as="geometry" />
        </mxCell>
        <mxCell id="WhckQn_8YqK9aiEQFW9J-3" value="NIP:192.168.61.7" style="rounded=1;whiteSpace=wrap;html=1;" vertex="1" parent="1">
          <mxGeometry x="250" y="420" width="120" height="60" as="geometry" />
        </mxCell>
        <mxCell id="WhckQn_8YqK9aiEQFW9J-5" style="edgeStyle=orthogonalEdgeStyle;rounded=0;orthogonalLoop=1;jettySize=auto;html=1;entryX=0.1;entryY=0.5;entryDx=0;entryDy=0;entryPerimeter=0;" edge="1" parent="1" source="WhckQn_8YqK9aiEQFW9J-27" target="WhckQn_8YqK9aiEQFW9J-2">
          <mxGeometry relative="1" as="geometry" />
        </mxCell>
        <mxCell id="WhckQn_8YqK9aiEQFW9J-6" value="CoreAPI DB:10.110.0.12" style="shape=datastore;whiteSpace=wrap;html=1;fontStyle=1" vertex="1" parent="1">
          <mxGeometry x="604" y="557" width="140" height="50" as="geometry" />
        </mxCell>
        <mxCell id="WhckQn_8YqK9aiEQFW9J-12" value="" style="edgeStyle=orthogonalEdgeStyle;rounded=0;orthogonalLoop=1;jettySize=auto;html=1;" edge="1" parent="1" source="WhckQn_8YqK9aiEQFW9J-10" target="HErnAzUT6-5LEjR79Lvf-10">
          <mxGeometry relative="1" as="geometry" />
        </mxCell>
        <mxCell id="WhckQn_8YqK9aiEQFW9J-10" value="" style="swimlane;startSize=0;" vertex="1" parent="1">
          <mxGeometry x="670" y="700" width="106" height="60" as="geometry" />
        </mxCell>
        <mxCell id="WhckQn_8YqK9aiEQFW9J-11" value="WAS" style="text;html=1;align=center;verticalAlign=middle;resizable=0;points=[];autosize=1;strokeColor=none;fillColor=none;fontStyle=1" vertex="1" parent="1">
          <mxGeometry x="694" y="713" width="50" height="30" as="geometry" />
        </mxCell>
        <mxCell id="WhckQn_8YqK9aiEQFW9J-13" value="" style="edgeStyle=orthogonalEdgeStyle;rounded=0;orthogonalLoop=1;jettySize=auto;html=1;exitX=0.5;exitY=1;exitDx=0;exitDy=0;" edge="1" parent="1">
          <mxGeometry relative="1" as="geometry">
            <mxPoint x="624" y="679" as="sourcePoint" />
            <mxPoint x="694" y="699" as="targetPoint" />
            <Array as="points">
              <mxPoint x="624" y="699" />
              <mxPoint x="684" y="699" />
              <mxPoint x="684" y="679" />
              <mxPoint x="695" y="679" />
            </Array>
          </mxGeometry>
        </mxCell>
        <mxCell id="WhckQn_8YqK9aiEQFW9J-14" value="" style="edgeStyle=orthogonalEdgeStyle;rounded=0;orthogonalLoop=1;jettySize=auto;html=1;entryX=-0.005;entryY=0.893;entryDx=0;entryDy=0;entryPerimeter=0;" edge="1" parent="1" source="9p9XvHRa5SeiTtAYQGbj-13" target="WhckQn_8YqK9aiEQFW9J-6">
          <mxGeometry relative="1" as="geometry" />
        </mxCell>
        <mxCell id="WhckQn_8YqK9aiEQFW9J-18" style="edgeStyle=orthogonalEdgeStyle;rounded=0;orthogonalLoop=1;jettySize=auto;html=1;entryX=-0.002;entryY=0.611;entryDx=0;entryDy=0;entryPerimeter=0;" edge="1" parent="1" target="HErnAzUT6-5LEjR79Lvf-1">
          <mxGeometry relative="1" as="geometry">
            <mxPoint x="114" y="768" as="sourcePoint" />
          </mxGeometry>
        </mxCell>
        <mxCell id="WhckQn_8YqK9aiEQFW9J-25" style="edgeStyle=orthogonalEdgeStyle;rounded=0;orthogonalLoop=1;jettySize=auto;html=1;entryX=0.538;entryY=1.013;entryDx=0;entryDy=0;entryPerimeter=0;" edge="1" parent="1" source="9p9XvHRa5SeiTtAYQGbj-16" target="9p9XvHRa5SeiTtAYQGbj-15">
          <mxGeometry relative="1" as="geometry" />
        </mxCell>
        <mxCell id="WhckQn_8YqK9aiEQFW9J-26" value="" style="edgeStyle=orthogonalEdgeStyle;rounded=0;orthogonalLoop=1;jettySize=auto;html=1;entryX=0.1;entryY=0.5;entryDx=0;entryDy=0;entryPerimeter=0;" edge="1" parent="1" source="WhckQn_8YqK9aiEQFW9J-3" target="WhckQn_8YqK9aiEQFW9J-27">
          <mxGeometry relative="1" as="geometry">
            <mxPoint x="370" y="450" as="sourcePoint" />
            <mxPoint x="457" y="457" as="targetPoint" />
          </mxGeometry>
        </mxCell>
        <mxCell id="WhckQn_8YqK9aiEQFW9J-27" value="" style="html=1;strokeWidth=1;shadow=0;dashed=0;shape=mxgraph.ios7.misc.vpn;fillColor=#007AFF;strokeColor=none;buttonText=;strokeColor2=#222222;fontColor=#222222;fontSize=8;verticalLabelPosition=bottom;verticalAlign=top;align=center;sketch=0;" vertex="1" parent="1">
          <mxGeometry x="397.5" y="441.5" width="15" height="15" as="geometry" />
        </mxCell>
        <mxCell id="WhckQn_8YqK9aiEQFW9J-28" value="" style="image;html=1;image=img/lib/clip_art/networking/Firewall-page1_128x128.png" vertex="1" parent="1">
          <mxGeometry x="560" y="630" width="80" height="80" as="geometry" />
        </mxCell>
        <mxCell id="WhckQn_8YqK9aiEQFW9J-29" value="" style="image;html=1;image=img/lib/clip_art/networking/Firewall-page1_128x128.png" vertex="1" parent="1">
          <mxGeometry x="89" y="690" width="80" height="80" as="geometry" />
        </mxCell>
      </root>
    </mxGraphModel>
  </diagram>
</mxfile>
